<svg width="466" height="435" viewBox="0 0 466 435" fill="none" xmlns="http://www.w3.org/2000/svg">
<circle cx="238.027" cy="217.027" r="158.875" transform="rotate(-120 238.027 217.027)" fill="#ADA0C2"/>
<path d="M23.8125 314.344C25.3333 314.344 26.5208 314.187 27.375 313.875C28.25 313.562 28.9271 313.177 29.4062 312.719C29.8854 312.26 30.3021 311.802 30.6562 311.344C30.9896 310.927 31.2604 310.615 31.4688 310.406C31.6979 310.198 32.0104 310.052 32.4062 309.969C32.7396 309.865 33.2708 309.802 34 309.781C34.75 309.74 35.4896 309.719 36.2188 309.719C36.9688 309.719 37.4896 309.74 37.7812 309.781C38.2188 309.802 38.5208 309.885 38.6875 310.031C38.8542 310.177 38.9583 310.49 39 310.969C39.0625 311.635 39.0938 312.427 39.0938 313.344C39.1146 314.26 39.1042 315.052 39.0625 315.719C39.0417 315.927 39 316.104 38.9375 316.25C38.8958 316.396 38.7917 316.615 38.625 316.906C38.4167 317.24 38.0104 317.729 37.4062 318.375C36.8021 319 35.9167 319.656 34.75 320.344C33.5833 321.01 32.0729 321.583 30.2188 322.062C28.3854 322.542 26.125 322.781 23.4375 322.781C20.5625 322.781 17.875 322.417 15.375 321.687C12.875 320.937 10.6771 319.687 8.78125 317.937C6.90625 316.187 5.4375 313.823 4.375 310.844C3.33333 307.865 2.8125 304.146 2.8125 299.687C2.8125 294.729 3.66667 290.521 5.375 287.062C7.10417 283.583 9.55208 280.937 12.7188 279.125C15.8854 277.312 19.6354 276.406 23.9688 276.406C27.0104 276.406 29.4479 276.719 31.2812 277.344C33.1354 277.969 34.5417 278.708 35.5 279.562C36.4583 280.396 37.1354 281.125 37.5312 281.75C37.6771 281.979 37.7812 282.187 37.8438 282.375C37.9062 282.542 37.9479 282.812 37.9688 283.187C38.0312 283.687 38.0417 284.417 38 285.375C37.9792 286.333 37.9062 287.177 37.7812 287.906C37.6979 288.365 37.5625 288.667 37.375 288.812C37.2917 288.896 37.1458 288.969 36.9375 289.031C36.7292 289.094 36.4167 289.125 36 289.125C35.3333 289.125 34.5833 289.104 33.75 289.062C32.9167 289 32.2917 288.937 31.875 288.875C31.375 288.792 31.0104 288.677 30.7812 288.531C30.5521 288.365 30.3229 288.115 30.0938 287.781C29.7188 287.24 29.0729 286.615 28.1562 285.906C27.2396 285.198 25.7292 284.844 23.625 284.844C20.6667 284.844 18.2292 285.99 16.3125 288.281C14.3958 290.552 13.4375 294.24 13.4375 299.344C13.4375 304.427 14.4375 308.198 16.4375 310.656C18.4583 313.115 20.9167 314.344 23.8125 314.344ZM53.5 322.781C50.4375 322.781 48 321.927 46.1875 320.219C44.3958 318.49 43.5 316.115 43.5 313.094C43.5 311.531 43.7812 310.083 44.3438 308.75C44.9271 307.396 45.9271 306.208 47.3438 305.187C48.7812 304.146 50.7812 303.312 53.3438 302.687C55.9271 302.062 59.2188 301.698 63.2188 301.594C63.2188 299.698 62.7396 298.333 61.7812 297.5C60.8438 296.667 59.4271 296.25 57.5312 296.25C55.8229 296.25 54.4271 296.542 53.3438 297.125C52.2604 297.708 51.5833 298.104 51.3125 298.312C51.0208 298.562 50.6667 298.656 50.25 298.594C49.6875 298.51 49.0833 298.365 48.4375 298.156C47.8125 297.948 47.1354 297.708 46.4062 297.437C46.3021 297.396 46.1875 297.333 46.0625 297.25C45.9375 297.146 45.8646 297 45.8438 296.812C45.8438 296.708 45.8542 296.583 45.875 296.437C45.8958 296.271 45.9479 295.979 46.0312 295.562C46.1146 295.146 46.2396 294.635 46.4062 294.031C46.5729 293.406 46.7292 292.927 46.875 292.594C47.0625 292.24 47.375 291.906 47.8125 291.594C48.1667 291.302 49.2396 290.833 51.0312 290.187C52.8229 289.542 55.4167 289.219 58.8125 289.219C68.1667 289.219 72.8438 293.771 72.8438 302.875V320.562C72.8438 320.958 72.7292 321.302 72.5 321.594C72.2917 321.865 71.9271 322 71.4062 322H66.7188C66.3854 322 66.0833 321.958 65.8125 321.875C65.5625 321.771 65.3229 321.583 65.0938 321.312L63.1562 318.812H62.9375C61.9792 320.208 60.6875 321.219 59.0625 321.844C57.4583 322.469 55.6042 322.781 53.5 322.781ZM56.9375 315.531C58.8542 315.531 60.3021 315.042 61.2812 314.062C62.2604 313.083 62.8854 312.073 63.1562 311.031V307.562C60.2604 307.562 58.0833 307.792 56.625 308.25C55.1875 308.687 54.2292 309.271 53.75 310C53.2708 310.708 53.0312 311.479 53.0312 312.312C53.0312 313.521 53.4062 314.365 54.1562 314.844C54.9062 315.302 55.8333 315.531 56.9375 315.531ZM93.3125 322.781C86.3542 322.781 82.875 319.167 82.875 311.937V297.281H79.3438C78.7188 297.281 78.2812 297.156 78.0312 296.906C77.8021 296.635 77.6875 296.187 77.6875 295.562V291.719C77.6875 291.094 77.8021 290.656 78.0312 290.406C78.2812 290.135 78.7188 290 79.3438 290H82.875V284.969C82.875 284.469 82.9792 284.083 83.1875 283.812C84.0625 282.667 85.3438 281.427 87.0312 280.094C87.3229 279.885 87.5833 279.781 87.8125 279.781C88.0625 279.781 88.3125 279.885 88.5625 280.094C89.4583 280.781 90.2083 281.427 90.8125 282.031C91.4375 282.635 91.9688 283.229 92.4062 283.812C92.6146 284.083 92.7188 284.469 92.7188 284.969V290H98.25C98.875 290 99.3021 290.135 99.5312 290.406C99.7812 290.656 99.9062 291.094 99.9062 291.719V295.562C99.9062 296.187 99.7812 296.635 99.5312 296.906C99.3021 297.156 98.875 297.281 98.25 297.281H92.7188V310.219C92.7188 313.552 93.9271 315.219 96.3438 315.219C96.7188 315.219 97.0625 315.187 97.375 315.125C97.6875 315.042 97.9583 314.958 98.1875 314.875C98.625 314.708 98.9271 314.646 99.0938 314.687C99.2812 314.729 99.4479 314.958 99.5938 315.375L101.406 320.219C101.594 320.74 101.469 321.115 101.031 321.344C100.719 321.49 99.9583 321.76 98.75 322.156C97.5625 322.573 95.75 322.781 93.3125 322.781ZM143.938 314.344C145.458 314.344 146.646 314.187 147.5 313.875C148.375 313.562 149.052 313.177 149.531 312.719C150.01 312.26 150.427 311.802 150.781 311.344C151.115 310.927 151.385 310.615 151.594 310.406C151.823 310.198 152.135 310.052 152.531 309.969C152.865 309.865 153.396 309.802 154.125 309.781C154.875 309.74 155.615 309.719 156.344 309.719C157.094 309.719 157.615 309.74 157.906 309.781C158.344 309.802 158.646 309.885 158.812 310.031C158.979 310.177 159.083 310.49 159.125 310.969C159.188 311.635 159.219 312.427 159.219 313.344C159.24 314.26 159.229 315.052 159.188 315.719C159.167 315.927 159.125 316.104 159.062 316.25C159.021 316.396 158.917 316.615 158.75 316.906C158.542 317.24 158.135 317.729 157.531 318.375C156.927 319 156.042 319.656 154.875 320.344C153.708 321.01 152.198 321.583 150.344 322.062C148.51 322.542 146.25 322.781 143.562 322.781C140.688 322.781 138 322.417 135.5 321.687C133 320.937 130.802 319.687 128.906 317.937C127.031 316.187 125.562 313.823 124.5 310.844C123.458 307.865 122.938 304.146 122.938 299.687C122.938 294.729 123.792 290.521 125.5 287.062C127.229 283.583 129.677 280.937 132.844 279.125C136.01 277.312 139.76 276.406 144.094 276.406C147.135 276.406 149.573 276.719 151.406 277.344C153.26 277.969 154.667 278.708 155.625 279.562C156.583 280.396 157.26 281.125 157.656 281.75C157.802 281.979 157.906 282.187 157.969 282.375C158.031 282.542 158.073 282.812 158.094 283.187C158.156 283.687 158.167 284.417 158.125 285.375C158.104 286.333 158.031 287.177 157.906 287.906C157.823 288.365 157.688 288.667 157.5 288.812C157.417 288.896 157.271 288.969 157.062 289.031C156.854 289.094 156.542 289.125 156.125 289.125C155.458 289.125 154.708 289.104 153.875 289.062C153.042 289 152.417 288.937 152 288.875C151.5 288.792 151.135 288.677 150.906 288.531C150.677 288.365 150.448 288.115 150.219 287.781C149.844 287.24 149.198 286.615 148.281 285.906C147.365 285.198 145.854 284.844 143.75 284.844C140.792 284.844 138.354 285.99 136.438 288.281C134.521 290.552 133.562 294.24 133.562 299.344C133.562 304.427 134.562 308.198 136.562 310.656C138.583 313.115 141.042 314.344 143.938 314.344ZM173.625 322.781C170.562 322.781 168.125 321.927 166.312 320.219C164.521 318.49 163.625 316.115 163.625 313.094C163.625 311.531 163.906 310.083 164.469 308.75C165.052 307.396 166.052 306.208 167.469 305.187C168.906 304.146 170.906 303.312 173.469 302.687C176.052 302.062 179.344 301.698 183.344 301.594C183.344 299.698 182.865 298.333 181.906 297.5C180.969 296.667 179.552 296.25 177.656 296.25C175.948 296.25 174.552 296.542 173.469 297.125C172.385 297.708 171.708 298.104 171.438 298.312C171.146 298.562 170.792 298.656 170.375 298.594C169.812 298.51 169.208 298.365 168.562 298.156C167.938 297.948 167.26 297.708 166.531 297.437C166.427 297.396 166.312 297.333 166.188 297.25C166.062 297.146 165.99 297 165.969 296.812C165.969 296.708 165.979 296.583 166 296.437C166.021 296.271 166.073 295.979 166.156 295.562C166.24 295.146 166.365 294.635 166.531 294.031C166.698 293.406 166.854 292.927 167 292.594C167.188 292.24 167.5 291.906 167.938 291.594C168.292 291.302 169.365 290.833 171.156 290.187C172.948 289.542 175.542 289.219 178.938 289.219C188.292 289.219 192.969 293.771 192.969 302.875V320.562C192.969 320.958 192.854 321.302 192.625 321.594C192.417 321.865 192.052 322 191.531 322H186.844C186.51 322 186.208 321.958 185.938 321.875C185.688 321.771 185.448 321.583 185.219 321.312L183.281 318.812H183.062C182.104 320.208 180.812 321.219 179.188 321.844C177.583 322.469 175.729 322.781 173.625 322.781ZM177.062 315.531C178.979 315.531 180.427 315.042 181.406 314.062C182.385 313.083 183.01 312.073 183.281 311.031V307.562C180.385 307.562 178.208 307.792 176.75 308.25C175.312 308.687 174.354 309.271 173.875 310C173.396 310.708 173.156 311.479 173.156 312.312C173.156 313.521 173.531 314.365 174.281 314.844C175.031 315.302 175.958 315.531 177.062 315.531ZM213.188 320.344C213.188 320.969 213.052 321.406 212.781 321.656C212.531 321.885 212.094 322 211.469 322H205.031C204.406 322 203.958 321.885 203.688 321.656C203.438 321.406 203.312 320.969 203.312 320.344V297.281H199.625C199 297.281 198.562 297.156 198.312 296.906C198.083 296.635 197.969 296.187 197.969 295.562V291.719C197.969 291.094 198.083 290.656 198.312 290.406C198.562 290.135 199 290 199.625 290H203.312V286.031C203.312 283.51 203.812 281.344 204.812 279.531C205.833 277.719 207.198 276.323 208.906 275.344C210.635 274.365 212.552 273.875 214.656 273.875C215.635 273.875 216.375 273.917 216.875 274C217.396 274.083 217.781 274.208 218.031 274.375C218.844 274.833 219.969 275.771 221.406 277.187C221.635 277.437 221.75 277.687 221.75 277.937C221.75 278.208 221.573 278.521 221.219 278.875C220.594 279.521 220 280.073 219.438 280.531C218.875 280.969 218.417 281.302 218.062 281.531C217.75 281.719 217.469 281.833 217.219 281.875C216.99 281.896 216.667 281.906 216.25 281.906C214.208 281.906 213.188 283.469 213.188 286.594V290H218.844C219.469 290 219.896 290.135 220.125 290.406C220.375 290.656 220.5 291.094 220.5 291.719V295.562C220.5 296.187 220.375 296.635 220.125 296.906C219.896 297.156 219.469 297.281 218.844 297.281H213.188V320.344ZM239.656 322.781C236.135 322.781 233.073 322.219 230.469 321.094C227.865 319.948 225.844 318.177 224.406 315.781C222.969 313.385 222.25 310.292 222.25 306.5C222.25 300.812 223.708 296.51 226.625 293.594C229.542 290.677 233.417 289.219 238.25 289.219C241.396 289.219 244.052 289.781 246.219 290.906C248.406 292.031 250.062 293.583 251.188 295.562C252.333 297.542 252.906 299.802 252.906 302.344C252.906 304.823 252.271 306.552 251 307.531C249.729 308.51 247.875 309 245.438 309H232.031C232.198 311.146 232.979 312.781 234.375 313.906C235.792 315.031 237.708 315.594 240.125 315.594C242.042 315.594 243.573 315.312 244.719 314.75C245.885 314.167 246.698 313.708 247.156 313.375C247.552 313.083 248 312.948 248.5 312.969C248.896 312.969 249.458 313.052 250.188 313.219C250.938 313.365 251.677 313.646 252.406 314.062C252.927 314.333 253.188 314.708 253.188 315.187C253.188 315.458 253.135 315.844 253.031 316.344C252.969 316.635 252.865 317.062 252.719 317.625C252.573 318.167 252.385 318.677 252.156 319.156C252.031 319.385 251.833 319.604 251.562 319.812C251.146 320.104 250.469 320.49 249.531 320.969C248.615 321.448 247.354 321.865 245.75 322.219C244.146 322.594 242.115 322.781 239.656 322.781ZM231.969 302.594H242.156C243.219 302.594 243.75 302.104 243.75 301.125C243.75 299.646 243.281 298.406 242.344 297.406C241.427 296.385 240.042 295.875 238.188 295.875C236.167 295.875 234.677 296.521 233.719 297.812C232.781 299.104 232.198 300.698 231.969 302.594ZM303.625 304.062C303.917 302.937 304.229 301.833 304.562 300.75C304.917 299.646 305.344 298.417 305.844 297.062C306.281 295.854 306.812 294.469 307.438 292.906C308.062 291.323 308.719 289.719 309.406 288.094C310.115 286.469 310.802 284.958 311.469 283.562C312.135 282.167 312.74 281.052 313.281 280.219C313.948 279.198 314.667 278.437 315.438 277.937C316.229 277.437 317.385 277.187 318.906 277.187H323C324.083 277.187 324.99 277.354 325.719 277.687C326.469 278 327 278.76 327.312 279.969C327.542 280.865 327.76 282.177 327.969 283.906C328.177 285.635 328.354 288.031 328.5 291.094C328.646 294.156 328.76 298.094 328.844 302.906C328.927 307.698 328.969 313.625 328.969 320.687C328.969 321.062 328.844 321.375 328.594 321.625C328.344 321.875 328.042 322 327.688 322H320.562C320.208 322 319.906 321.875 319.656 321.625C319.406 321.375 319.281 321.052 319.281 320.656C319.281 315.156 319.281 310.49 319.281 306.656C319.281 302.823 319.271 299.646 319.25 297.125C319.229 294.604 319.198 292.604 319.156 291.125C319.135 289.625 319.094 288.469 319.031 287.656H318.844C317.74 290.198 316.562 293.031 315.312 296.156C314.062 299.26 312.844 302.469 311.656 305.781C310.469 309.073 309.406 312.292 308.469 315.437C308.198 316.375 307.854 317.031 307.438 317.406C307.042 317.76 306.125 317.937 304.688 317.937H301.094C299.865 317.937 299.042 317.781 298.625 317.469C298.229 317.156 297.885 316.479 297.594 315.437C296.906 313.062 296.146 310.552 295.312 307.906C294.479 305.26 293.615 302.667 292.719 300.125C291.844 297.562 290.99 295.208 290.156 293.062C289.344 290.896 288.615 289.094 287.969 287.656H287.781C287.615 290.115 287.469 293.104 287.344 296.625C287.219 300.146 287.115 303.969 287.031 308.094C286.969 312.219 286.927 316.427 286.906 320.719C286.906 321.094 286.781 321.406 286.531 321.656C286.281 321.885 285.979 322 285.625 322H279.219C278.865 322 278.562 321.875 278.312 321.625C278.062 321.375 277.938 321.052 277.938 320.656C277.958 309.552 278.177 300.687 278.594 294.062C279.031 287.437 279.5 283 280 280.75C280.333 279.271 280.917 278.312 281.75 277.875C282.604 277.417 283.573 277.187 284.656 277.187H289.719C290.865 277.187 291.698 277.396 292.219 277.812C292.76 278.208 293.417 278.99 294.188 280.156C294.646 280.844 295.188 281.875 295.812 283.25C296.458 284.625 297.125 286.156 297.812 287.844C298.5 289.51 299.146 291.167 299.75 292.812C300.375 294.437 300.885 295.854 301.281 297.062C301.698 298.292 302.083 299.49 302.438 300.656C302.792 301.802 303.104 302.937 303.375 304.062H303.625ZM345.25 322.781C342.188 322.781 339.75 321.927 337.938 320.219C336.146 318.49 335.25 316.115 335.25 313.094C335.25 311.531 335.531 310.083 336.094 308.75C336.677 307.396 337.677 306.208 339.094 305.187C340.531 304.146 342.531 303.312 345.094 302.687C347.677 302.062 350.969 301.698 354.969 301.594C354.969 299.698 354.49 298.333 353.531 297.5C352.594 296.667 351.177 296.25 349.281 296.25C347.573 296.25 346.177 296.542 345.094 297.125C344.01 297.708 343.333 298.104 343.062 298.312C342.771 298.562 342.417 298.656 342 298.594C341.438 298.51 340.833 298.365 340.188 298.156C339.562 297.948 338.885 297.708 338.156 297.437C338.052 297.396 337.938 297.333 337.812 297.25C337.688 297.146 337.615 297 337.594 296.812C337.594 296.708 337.604 296.583 337.625 296.437C337.646 296.271 337.698 295.979 337.781 295.562C337.865 295.146 337.99 294.635 338.156 294.031C338.323 293.406 338.479 292.927 338.625 292.594C338.812 292.24 339.125 291.906 339.562 291.594C339.917 291.302 340.99 290.833 342.781 290.187C344.573 289.542 347.167 289.219 350.562 289.219C359.917 289.219 364.594 293.771 364.594 302.875V320.562C364.594 320.958 364.479 321.302 364.25 321.594C364.042 321.865 363.677 322 363.156 322H358.469C358.135 322 357.833 321.958 357.562 321.875C357.312 321.771 357.073 321.583 356.844 321.312L354.906 318.812H354.688C353.729 320.208 352.438 321.219 350.812 321.844C349.208 322.469 347.354 322.781 345.25 322.781ZM348.688 315.531C350.604 315.531 352.052 315.042 353.031 314.062C354.01 313.083 354.635 312.073 354.906 311.031V307.562C352.01 307.562 349.833 307.792 348.375 308.25C346.938 308.687 345.979 309.271 345.5 310C345.021 310.708 344.781 311.479 344.781 312.312C344.781 313.521 345.156 314.365 345.906 314.844C346.656 315.302 347.583 315.531 348.688 315.531ZM382.594 320.344C382.594 320.969 382.458 321.406 382.188 321.656C381.938 321.885 381.5 322 380.875 322H374.438C373.812 322 373.365 321.885 373.094 321.656C372.844 321.406 372.719 320.969 372.719 320.344V278.062C372.719 277.562 372.823 277.177 373.031 276.906C373.906 275.76 375.188 274.521 376.875 273.187C377.167 272.979 377.427 272.875 377.656 272.875C377.927 272.875 378.188 272.979 378.438 273.187C379.333 273.875 380.083 274.521 380.688 275.125C381.312 275.729 381.844 276.323 382.281 276.906C382.49 277.177 382.594 277.562 382.594 278.062V302.594H382.969C386.135 302.594 388.281 302.031 389.406 300.906C390.552 299.76 391.125 298.177 391.125 296.156V294.469C391.125 293.969 391.229 293.583 391.438 293.312C392.312 292.167 393.594 290.927 395.281 289.594C395.573 289.385 395.833 289.281 396.062 289.281C396.333 289.281 396.594 289.385 396.844 289.594C397.74 290.281 398.49 290.927 399.094 291.531C399.719 292.135 400.25 292.729 400.688 293.312C400.896 293.583 401 293.969 401 294.469V296.156C401 297.344 400.76 298.656 400.281 300.094C399.823 301.531 398.979 302.802 397.75 303.906C396.521 305.01 394.771 305.656 392.5 305.844V306C394.25 306.771 395.76 307.792 397.031 309.062C398.302 310.333 399.365 311.698 400.219 313.156C401.073 314.594 401.729 315.979 402.188 317.312C402.667 318.625 402.979 319.74 403.125 320.656C403.271 321.552 402.969 322 402.219 322H394C393.292 322 392.885 321.573 392.781 320.719C392.635 319.74 392.312 318.594 391.812 317.281C391.333 315.948 390.677 314.646 389.844 313.375C389.031 312.104 388.042 311.052 386.875 310.219C385.729 309.365 384.427 308.937 382.969 308.937H382.594V320.344ZM424.344 322.781C420.823 322.781 417.76 322.219 415.156 321.094C412.552 319.948 410.531 318.177 409.094 315.781C407.656 313.385 406.938 310.292 406.938 306.5C406.938 300.812 408.396 296.51 411.312 293.594C414.229 290.677 418.104 289.219 422.938 289.219C426.083 289.219 428.74 289.781 430.906 290.906C433.094 292.031 434.75 293.583 435.875 295.562C437.021 297.542 437.594 299.802 437.594 302.344C437.594 304.823 436.958 306.552 435.688 307.531C434.417 308.51 432.562 309 430.125 309H416.719C416.885 311.146 417.667 312.781 419.062 313.906C420.479 315.031 422.396 315.594 424.812 315.594C426.729 315.594 428.26 315.312 429.406 314.75C430.573 314.167 431.385 313.708 431.844 313.375C432.24 313.083 432.688 312.948 433.188 312.969C433.583 312.969 434.146 313.052 434.875 313.219C435.625 313.365 436.365 313.646 437.094 314.062C437.615 314.333 437.875 314.708 437.875 315.187C437.875 315.458 437.823 315.844 437.719 316.344C437.656 316.635 437.552 317.062 437.406 317.625C437.26 318.167 437.073 318.677 436.844 319.156C436.719 319.385 436.521 319.604 436.25 319.812C435.833 320.104 435.156 320.49 434.219 320.969C433.302 321.448 432.042 321.865 430.438 322.219C428.833 322.594 426.802 322.781 424.344 322.781ZM416.656 302.594H426.844C427.906 302.594 428.438 302.104 428.438 301.125C428.438 299.646 427.969 298.406 427.031 297.406C426.115 296.385 424.729 295.875 422.875 295.875C420.854 295.875 419.365 296.521 418.406 297.812C417.469 299.104 416.885 300.698 416.656 302.594ZM454.344 295.937H454.469C456.031 291.604 458.844 289.437 462.906 289.437C463.427 289.437 463.854 289.469 464.188 289.531C464.521 289.573 464.75 289.615 464.875 289.656C465.188 289.76 465.344 290 465.344 290.375V297.906C465.344 298.552 464.969 298.729 464.219 298.437C463.969 298.333 463.604 298.229 463.125 298.125C462.667 298 462.021 297.937 461.188 297.937C459.042 297.937 457.365 298.729 456.156 300.312C454.948 301.875 454.344 304.01 454.344 306.719V320.344C454.344 320.969 454.208 321.406 453.938 321.656C453.688 321.885 453.25 322 452.625 322H446.188C445.562 322 445.115 321.885 444.844 321.656C444.594 321.406 444.469 320.969 444.469 320.344V294.156C444.469 293.656 444.573 293.271 444.781 293C445.219 292.417 445.74 291.823 446.344 291.219C446.969 290.615 447.729 289.969 448.625 289.281C448.792 289.156 448.958 289.073 449.125 289.031C449.292 288.99 449.438 288.969 449.562 288.969C449.854 288.969 450.146 289.073 450.438 289.281C452.167 290.635 453.375 291.792 454.062 292.75C454.25 293 454.344 293.292 454.344 293.625V295.937Z" fill="#675541"/>
<g clip-path="url(#clip0_212_915)">
<g filter="url(#filter0_d_212_915)">
<path d="M270.639 241.194C269.112 240.587 267.741 239.772 266.075 240.332C265.941 240.37 265.803 240.421 265.727 240.475C263.847 241.325 263.144 242.788 262.465 244.581C261.99 245.845 261.462 247.492 263.222 248.013C264.12 248.279 264.828 248.742 265.585 249.069C268.567 250.364 272.672 252.284 271.829 256.219C270.68 261.575 263.42 263.269 258.856 262.965C253.838 262.639 249.091 260.982 244.261 259.725C242.041 259.155 239.849 258.53 237.65 257.929C234.629 257.107 231.192 258.62 231.722 262.252C231.865 263.247 232.304 264.532 232.998 265.277C234.93 267.385 239.822 268.223 242.437 269.036C248.42 270.9 254.782 272.605 261.08 272.603C269.726 272.597 279.59 268.185 281.695 258.987C283.317 251.82 277.218 243.802 270.639 241.194Z" fill="#FDB262"/>
</g>
<g filter="url(#filter1_d_212_915)">
<path d="M235.22 250.173C235.22 250.173 228.754 247.882 229.524 243.94L228.692 232.029L249.087 221.223C249.087 221.223 261.12 224.199 261.804 224.382C262.499 224.569 261.579 240.841 261.579 240.841L253.304 248.734L235.22 250.173Z" fill="#2F2F2F"/>
</g>
<g filter="url(#filter2_d_212_915)">
<path d="M254.009 180.561C253.511 183.856 253.446 186.832 255.052 189.784C256.346 192.142 257.794 194.245 258.914 196.693C262.139 203.755 269.647 207.903 272.96 215.287C275.168 220.213 276.075 225.772 275.863 231.106C275.623 237.102 274.737 243.56 271.67 248.7C267.46 255.744 260.549 254.886 253.302 254.074C249.973 253.704 246.642 253.109 243.372 252.333C240.769 251.71 237.693 251.233 235.205 250.181C233.032 249.252 233.423 246.077 234.518 244.446C235.686 242.684 237.828 242.476 239.741 242.616C240.68 242.681 241.55 243.187 242.494 243.279C244.246 243.463 245.248 242.551 245.733 240.88C246.383 238.595 247.683 236.894 249.275 235.172C249.992 234.395 251.006 233.81 251.954 233.331C252.923 232.821 254.531 232.196 254.125 230.746C253.434 228.226 249.026 229.193 247.465 229.781C245.052 230.675 243.031 232.468 241.763 234.699C239.979 237.786 239.237 237.823 235.814 238.173C233.794 238.389 231.788 239.106 230.606 240.739C229.154 242.772 229.854 245.816 227.866 247.395C226.296 248.664 223.838 248.937 221.821 248.309C216.622 246.668 213.443 244.437 215.979 239.379C217.575 236.204 218.342 232.46 219.485 229.028C219.905 227.737 220.57 225.767 219.506 224.5C219.095 223.993 218.404 223.745 217.804 223.622C217.395 223.525 216.391 223.194 215.974 223.219C214.754 223.277 214.536 225.156 214.293 226.109C213.814 227.943 213.279 229.8 212.749 231.595C212.128 233.726 211.791 235.909 211.246 238.036C210.885 239.43 210.553 241.179 209.142 241.857C207.522 242.665 205.449 242.382 203.649 241.962C201.483 241.469 199.082 240.651 197.632 238.922C194.671 235.371 197.492 229.805 198.75 226.453C199.569 224.275 200.031 221.903 200.588 219.593C201.095 217.518 201.592 215.428 202.105 213.329C202.312 212.466 202.444 211.508 202.726 210.639C203.552 208.252 203.722 205.627 204.329 203.082C205.455 198.416 206.476 193.634 207.739 188.918C208.28 186.902 209.22 184.781 210.312 183.025C210.898 182.089 211.601 180.811 212.384 180.065C213.624 178.869 215.449 177.992 216.987 177.212C218.968 176.215 221.061 176.006 223.187 175.395C225.947 174.595 228.791 173.904 231.658 173.492C236.693 172.779 241.966 172.429 247.069 173.597C248.86 174.003 250.267 174.082 252.088 174.147C253.92 174.216 254.467 175.604 254.345 177.311C254.342 178.39 254.175 179.476 254.009 180.561ZM244.526 142.25C244.526 142.25 242.868 138.564 239.346 128.715C237.179 122.62 229.878 105.138 223.418 106.624C213.457 108.898 205.674 141.838 205.674 141.838L244.526 142.25ZM248.082 143.625C248.082 143.625 251.782 142.008 260.992 137.024C266.695 133.957 283.806 125.86 287.623 131.268C293.507 139.625 277.243 169.312 277.243 169.312L248.082 143.625Z" fill="#FDB262"/>
</g>
<g filter="url(#filter3_d_212_915)">
<path d="M278.084 184.715C281.171 174.724 279.397 162.524 273.08 152.957C267.978 145.205 259.032 138.821 249.308 135.11C239.593 131.365 228.683 130.13 219.713 132.459C208.606 135.345 199.143 143.218 194.735 152.718C190.555 161.733 188.859 171.774 195.004 181.519C198.414 186.916 203.425 191.625 209.052 195.281C211.188 196.673 216.767 200.143 223.062 202.562C229.379 204.988 236.413 206.363 238.941 206.755C245.568 207.798 252.447 207.666 258.584 205.945C269.695 202.811 275.154 194.214 278.084 184.715Z" fill="#FDB262"/>
</g>
<g filter="url(#filter4_d_212_915)">
<path d="M221.746 165.57C220.355 169.184 216.621 171.115 213.411 169.882C210.202 168.65 208.708 164.722 210.102 161.096C211.496 157.47 215.23 155.54 218.439 156.772C221.646 158.016 223.128 161.941 221.746 165.57ZM248.83 175.969C247.439 179.584 248.918 183.52 252.128 184.752C255.337 185.985 259.072 184.054 260.462 180.44C261.856 176.814 260.377 172.878 257.168 171.645C253.943 170.421 250.224 172.344 248.83 175.969ZM229.387 187.577C229.329 187.561 229.26 187.543 229.205 187.516C228.248 187.147 227.765 186.074 228.137 185.105L230.605 178.675C230.973 177.718 232.046 177.285 233.015 177.607C233.972 177.975 234.455 179.048 234.083 180.017L231.618 186.436C231.265 187.335 230.303 187.822 229.387 187.577Z" fill="#2F2F2F"/>
<path d="M222.979 190.493C221.163 189.994 219.481 188.947 218.422 187.57C217.585 186.476 216.563 183.569 218.541 183.093C218.859 183.017 219.194 183.02 219.516 183.069C220.033 183.133 220.404 183.369 220.738 183.794C221.276 184.472 221.605 185.516 222.396 185.902C224.861 187.134 227.466 186.404 228.793 183.952C229.145 183.289 229.293 182.968 230.149 183.111C232.227 183.469 232.03 186.149 231.067 187.518C230.206 188.74 229.165 190.026 227.685 190.499C226.167 190.974 224.506 190.914 222.979 190.493Z" fill="#2F2F2F"/>
<path d="M232.241 193.893C233.95 194.699 235.909 194.988 237.618 194.638C238.964 194.341 241.635 192.809 240.438 191.159C239.684 190.125 238.754 190.211 237.654 190.562C234.854 191.464 231.878 189.499 231.824 186.503C231.821 185.819 232.334 184.876 232.196 184.231C232.129 183.927 231.893 183.926 231.6 183.723C231.401 183.583 231.287 183.453 231.047 183.376C229.941 183.006 228.969 184.037 228.541 184.941C228.312 185.426 228.093 185.826 228.037 186.358C227.895 187.86 227.853 189.501 228.678 190.827C229.505 192.191 230.809 193.211 232.241 193.893Z" fill="#2F2F2F"/>
<path d="M226.11 177.93C225.743 179.16 226.083 180.717 227.028 181.964C227.8 182.978 229.106 183.85 230.495 184.371C231.88 184.904 233.433 185.133 234.673 184.907C236.218 184.613 237.508 183.692 238.057 182.522C238.588 181.422 238.766 180.154 237.827 178.884C237.321 178.177 236.581 177.556 235.757 177.062C235.46 176.871 234.645 176.391 233.743 176.05C232.832 175.694 231.834 175.477 231.477 175.418C230.543 175.243 229.569 175.218 228.716 175.387C227.177 175.707 226.464 176.746 226.11 177.93Z" fill="#2F2F2F"/>
</g>
<g filter="url(#filter5_d_212_915)">
<path d="M195.829 159.992C195.713 159.961 195.6 159.918 195.491 159.864L186.465 155.446C185.541 154.999 185.158 153.878 185.616 152.958C186.062 152.034 187.21 151.646 188.104 152.109L197.127 156.539C198.05 156.985 198.433 158.106 197.978 159.015C197.578 159.814 196.663 160.215 195.829 159.992ZM184.081 164.669C183.188 164.429 182.6 163.564 182.727 162.629C182.852 161.607 183.786 160.901 184.808 161.026L194.777 162.343C195.776 162.461 196.505 163.402 196.38 164.424C196.243 165.443 195.306 166.161 194.298 166.028L184.33 164.711C184.243 164.712 184.173 164.693 184.081 164.669ZM184.746 173.541C183.97 173.333 183.388 172.631 183.37 171.769C183.347 170.744 184.167 169.908 185.203 169.888L195.246 169.722C196.268 169.71 197.118 170.522 197.139 171.558C197.151 172.58 196.339 173.431 195.306 173.439L185.263 173.605C185.077 173.605 184.908 173.585 184.746 173.541ZM272.723 188.035C271.819 187.793 271.226 186.901 271.367 185.958C271.442 185.471 271.707 185.033 272.104 184.741C272.501 184.449 272.998 184.327 273.486 184.402L283.427 185.91C284.411 186.087 285.143 187.016 284.984 188.029C284.832 189.057 283.878 189.745 282.865 189.585L272.923 188.076C272.854 188.058 272.781 188.051 272.723 188.035ZM279.684 198.582C279.557 198.548 279.432 198.502 279.303 198.43L270.379 193.816C269.944 193.589 269.615 193.199 269.466 192.731C269.317 192.263 269.359 191.755 269.583 191.317C270.061 190.415 271.176 190.055 272.082 190.521L281.017 195.139C281.923 195.605 282.291 196.734 281.813 197.637C281.415 198.425 280.507 198.803 279.684 198.582ZM274.097 205.481C273.889 205.425 273.678 205.332 273.491 205.195L265.336 199.333C264.502 198.737 264.307 197.567 264.914 196.736C265.51 195.902 266.678 195.718 267.511 196.314L275.678 202.179C276.508 202.786 276.696 203.942 276.099 204.776C275.629 205.42 274.827 205.677 274.097 205.481Z" fill="#2F2F2F"/>
</g>
<g filter="url(#filter6_d_212_915)">
<path d="M221.575 120.687C220.139 122.662 216.737 128.544 216.596 133.338C216.548 134.766 218.102 135.828 219.474 135.575C222.338 135.038 226.876 133.956 228.558 133.612C231.416 133.049 232.698 131.74 231.837 129.485C230.744 126.609 227.749 120.453 225.318 119.28C223.933 118.611 222.513 119.411 221.575 120.687ZM279.738 142.804C279.592 145.249 278.446 151.935 275.49 155.738C274.618 156.859 272.738 156.69 271.845 155.619C269.985 153.382 267.196 149.654 266.101 148.317C264.271 146.063 264.104 144.229 266.21 143.043C268.878 141.522 275.116 138.685 277.736 139.337C279.24 139.703 279.837 141.229 279.738 142.804Z" fill="#FCD4B5"/>
</g>
</g>
<defs>
<filter id="filter0_d_212_915" x="227.668" y="240.145" width="58.2916" height="40.4583" filterUnits="userSpaceOnUse" color-interpolation-filters="sRGB">
<feFlood flood-opacity="0" result="BackgroundImageFix"/>
<feColorMatrix in="SourceAlpha" type="matrix" values="0 0 0 0 0 0 0 0 0 0 0 0 0 0 0 0 0 0 127 0" result="hardAlpha"/>
<feOffset dy="4"/>
<feGaussianBlur stdDeviation="2"/>
<feComposite in2="hardAlpha" operator="out"/>
<feColorMatrix type="matrix" values="0 0 0 0 0 0 0 0 0 0 0 0 0 0 0 0 0 0 0.25 0"/>
<feBlend mode="normal" in2="BackgroundImageFix" result="effect1_dropShadow_212_915"/>
<feBlend mode="normal" in="SourceGraphic" in2="effect1_dropShadow_212_915" result="shape"/>
</filter>
<filter id="filter1_d_212_915" x="224.692" y="221.223" width="41.372" height="36.9496" filterUnits="userSpaceOnUse" color-interpolation-filters="sRGB">
<feFlood flood-opacity="0" result="BackgroundImageFix"/>
<feColorMatrix in="SourceAlpha" type="matrix" values="0 0 0 0 0 0 0 0 0 0 0 0 0 0 0 0 0 0 127 0" result="hardAlpha"/>
<feOffset dy="4"/>
<feGaussianBlur stdDeviation="2"/>
<feComposite in2="hardAlpha" operator="out"/>
<feColorMatrix type="matrix" values="0 0 0 0 0 0 0 0 0 0 0 0 0 0 0 0 0 0 0.25 0"/>
<feBlend mode="normal" in2="BackgroundImageFix" result="effect1_dropShadow_212_915"/>
<feBlend mode="normal" in="SourceGraphic" in2="effect1_dropShadow_212_915" result="shape"/>
</filter>
<filter id="filter2_d_212_915" x="192.325" y="106.535" width="100.581" height="156.073" filterUnits="userSpaceOnUse" color-interpolation-filters="sRGB">
<feFlood flood-opacity="0" result="BackgroundImageFix"/>
<feColorMatrix in="SourceAlpha" type="matrix" values="0 0 0 0 0 0 0 0 0 0 0 0 0 0 0 0 0 0 127 0" result="hardAlpha"/>
<feOffset dy="4"/>
<feGaussianBlur stdDeviation="2"/>
<feComposite in2="hardAlpha" operator="out"/>
<feColorMatrix type="matrix" values="0 0 0 0 0 0 0 0 0 0 0 0 0 0 0 0 0 0 0.25 0"/>
<feBlend mode="normal" in2="BackgroundImageFix" result="effect1_dropShadow_212_915"/>
<feBlend mode="normal" in="SourceGraphic" in2="effect1_dropShadow_212_915" result="shape"/>
</filter>
<filter id="filter3_d_212_915" x="186.979" y="131.278" width="96.5854" height="84.139" filterUnits="userSpaceOnUse" color-interpolation-filters="sRGB">
<feFlood flood-opacity="0" result="BackgroundImageFix"/>
<feColorMatrix in="SourceAlpha" type="matrix" values="0 0 0 0 0 0 0 0 0 0 0 0 0 0 0 0 0 0 127 0" result="hardAlpha"/>
<feOffset dy="4"/>
<feGaussianBlur stdDeviation="2"/>
<feComposite in2="hardAlpha" operator="out"/>
<feColorMatrix type="matrix" values="0 0 0 0 0 0 0 0 0 0 0 0 0 0 0 0 0 0 0.25 0"/>
<feBlend mode="normal" in2="BackgroundImageFix" result="effect1_dropShadow_212_915"/>
<feBlend mode="normal" in="SourceGraphic" in2="effect1_dropShadow_212_915" result="shape"/>
</filter>
<filter id="filter4_d_212_915" x="205.579" y="156.4" width="59.4076" height="46.3843" filterUnits="userSpaceOnUse" color-interpolation-filters="sRGB">
<feFlood flood-opacity="0" result="BackgroundImageFix"/>
<feColorMatrix in="SourceAlpha" type="matrix" values="0 0 0 0 0 0 0 0 0 0 0 0 0 0 0 0 0 0 127 0" result="hardAlpha"/>
<feOffset dy="4"/>
<feGaussianBlur stdDeviation="2"/>
<feComposite in2="hardAlpha" operator="out"/>
<feColorMatrix type="matrix" values="0 0 0 0 0 0 0 0 0 0 0 0 0 0 0 0 0 0 0.25 0"/>
<feBlend mode="normal" in2="BackgroundImageFix" result="effect1_dropShadow_212_915"/>
<feBlend mode="normal" in="SourceGraphic" in2="effect1_dropShadow_212_915" result="shape"/>
</filter>
<filter id="filter5_d_212_915" x="178.71" y="151.913" width="110.296" height="61.6322" filterUnits="userSpaceOnUse" color-interpolation-filters="sRGB">
<feFlood flood-opacity="0" result="BackgroundImageFix"/>
<feColorMatrix in="SourceAlpha" type="matrix" values="0 0 0 0 0 0 0 0 0 0 0 0 0 0 0 0 0 0 127 0" result="hardAlpha"/>
<feOffset dy="4"/>
<feGaussianBlur stdDeviation="2"/>
<feComposite in2="hardAlpha" operator="out"/>
<feColorMatrix type="matrix" values="0 0 0 0 0 0 0 0 0 0 0 0 0 0 0 0 0 0 0.25 0"/>
<feBlend mode="normal" in2="BackgroundImageFix" result="effect1_dropShadow_212_915"/>
<feBlend mode="normal" in="SourceGraphic" in2="effect1_dropShadow_212_915" result="shape"/>
</filter>
<filter id="filter6_d_212_915" x="212.595" y="119.038" width="71.1536" height="45.466" filterUnits="userSpaceOnUse" color-interpolation-filters="sRGB">
<feFlood flood-opacity="0" result="BackgroundImageFix"/>
<feColorMatrix in="SourceAlpha" type="matrix" values="0 0 0 0 0 0 0 0 0 0 0 0 0 0 0 0 0 0 127 0" result="hardAlpha"/>
<feOffset dy="4"/>
<feGaussianBlur stdDeviation="2"/>
<feComposite in2="hardAlpha" operator="out"/>
<feColorMatrix type="matrix" values="0 0 0 0 0 0 0 0 0 0 0 0 0 0 0 0 0 0 0.25 0"/>
<feBlend mode="normal" in2="BackgroundImageFix" result="effect1_dropShadow_212_915"/>
<feBlend mode="normal" in="SourceGraphic" in2="effect1_dropShadow_212_915" result="shape"/>
</filter>
<clipPath id="clip0_212_915">
<rect width="153.563" height="153.563" fill="white" transform="translate(183.745 95) rotate(15)"/>
</clipPath>
</defs>
</svg>
