<svg width="87" height="70" viewBox="0 0 87 70" fill="none" xmlns="http://www.w3.org/2000/svg">
<g filter="url(#filter0_d_1_244)">
<path d="M69.8333 53.1429V55.3571C69.8333 59.0259 66.8859 62 63.25 62H10.5833C6.94741 62 4 59.0259 4 55.3571V19.9286C4 16.2598 6.94741 13.2857 10.5833 13.2857H12.7778V42.0714C12.7778 48.1762 17.6999 53.1429 23.75 53.1429H69.8333ZM83 42.0714V6.64286C83 2.97406 80.0526 0 76.4167 0H23.75C20.1141 0 17.1667 2.97406 17.1667 6.64286V42.0714C17.1667 45.7402 20.1141 48.7143 23.75 48.7143H76.4167C80.0526 48.7143 83 45.7402 83 42.0714ZM39.1111 13.2857C39.1111 16.9545 36.1637 19.9286 32.5278 19.9286C28.8919 19.9286 25.9444 16.9545 25.9444 13.2857C25.9444 9.61692 28.8919 6.64286 32.5278 6.64286C36.1637 6.64286 39.1111 9.61692 39.1111 13.2857ZM25.9444 33.2143L33.5585 25.5314C34.2012 24.8829 35.2433 24.8829 35.8861 25.5314L41.3056 31L59.8918 12.2457C60.5345 11.5972 61.5766 11.5972 62.2194 12.2457L74.2222 24.3571V39.8571H25.9444V33.2143Z" fill="white" fill-opacity="0.78" shape-rendering="crispEdges"/>
</g>
<defs>
<filter id="filter0_d_1_244" x="0" y="0" width="87" height="70" filterUnits="userSpaceOnUse" color-interpolation-filters="sRGB">
<feFlood flood-opacity="0" result="BackgroundImageFix"/>
<feColorMatrix in="SourceAlpha" type="matrix" values="0 0 0 0 0 0 0 0 0 0 0 0 0 0 0 0 0 0 127 0" result="hardAlpha"/>
<feOffset dy="4"/>
<feGaussianBlur stdDeviation="2"/>
<feComposite in2="hardAlpha" operator="out"/>
<feColorMatrix type="matrix" values="0 0 0 0 0 0 0 0 0 0 0 0 0 0 0 0 0 0 0.25 0"/>
<feBlend mode="normal" in2="BackgroundImageFix" result="effect1_dropShadow_1_244"/>
<feBlend mode="normal" in="SourceGraphic" in2="effect1_dropShadow_1_244" result="shape"/>
</filter>
</defs>
</svg>
